<svg xmlns="http://www.w3.org/2000/svg" width="1000" height="800" viewBox="0 0 1000 800" font-family="Helvetica Neue, Helvetica, Arial, sans-serif">
  <defs>
    <marker id="ar" viewBox="0 0 10 10" refX="8" refY="5" markerWidth="6" markerHeight="6" orient="auto-start-reverse">
      <path d="M0,0 L10,5 L0,10 z" fill="#f5c542"/>
    </marker>
  </defs>

  <rect x="0" y="0" width="1000" height="800" fill="#1f1f1f"/>
  <text x="24" y="26" font-size="16" font-weight="bold" fill="#e6e6e6">egMatLib &#8212; component wireframes</text>
  <text x="24" y="42" font-size="10" fill="#8a8a8a">all numbers = rendered px (as measured on screen) &#183; slider marks are values, not px</text>

  <!-- ============ 1 PANEL ============ -->
  <rect x="24" y="52" width="460" height="404" rx="6" fill="#242424" stroke="#3a3a3a"/>
  <text x="40" y="74" font-size="12" font-weight="bold" fill="#e6e6e6">PANEL</text>

  <!-- toolbar -->
  <rect x="150" y="100" width="300" height="30" fill="none" stroke="#8a8a8a"/>
  <text x="158" y="119" font-size="9" fill="#8a8a8a">toolbar</text>
  <line x1="150" y1="130" x2="450" y2="130" stroke="#5a5a5a"/>
  <!-- cat pane -->
  <rect x="150" y="130" width="78" height="270" fill="none" stroke="#8a8a8a"/>
  <rect x="154" y="136" width="70" height="14" rx="3" fill="none" stroke="#8a8a8a"/>
  <line x1="177" y1="136" x2="177" y2="150" stroke="#8a8a8a"/>
  <line x1="200" y1="136" x2="200" y2="150" stroke="#8a8a8a"/>
  <line x1="158" y1="162" x2="200" y2="162" stroke="#5a5a5a"/>
  <line x1="158" y1="176" x2="210" y2="176" stroke="#5a5a5a"/>
  <line x1="158" y1="190" x2="192" y2="190" stroke="#5a5a5a"/>
  <line x1="158" y1="204" x2="204" y2="204" stroke="#5a5a5a"/>
  <!-- splitters -->
  <rect x="228" y="130" width="6" height="270" fill="none" stroke="#5a5a5a"/>
  <rect x="372" y="130" width="6" height="270" fill="none" stroke="#5a5a5a"/>
  <!-- thumb pane -->
  <rect x="234" y="130" width="138" height="270" fill="none" stroke="#8a8a8a"/>
  <rect x="238" y="134" width="130" height="4" fill="none" stroke="#8a8a8a"/>
  <g fill="none" stroke="#5a5a5a">
    <rect x="242" y="146" width="36" height="36"/><line x1="242" y1="188" x2="270" y2="188"/>
    <rect x="286" y="146" width="36" height="36"/><line x1="286" y1="188" x2="314" y2="188"/>
    <rect x="330" y="146" width="36" height="36"/><line x1="330" y1="188" x2="358" y2="188"/>
    <rect x="242" y="202" width="36" height="36"/><line x1="242" y1="244" x2="270" y2="244"/>
    <rect x="286" y="202" width="36" height="36"/><line x1="286" y1="244" x2="314" y2="244"/>
    <rect x="330" y="202" width="36" height="36"/><line x1="330" y1="244" x2="358" y2="244"/>
  </g>
  <!-- details pane -->
  <rect x="378" y="130" width="72" height="270" fill="none" stroke="#8a8a8a"/>
  <g stroke="#5a5a5a" fill="none">
    <line x1="384" y1="148" x2="400" y2="148"/><rect x="406" y="142" width="38" height="11"/>
    <line x1="384" y1="170" x2="398" y2="170"/><rect x="406" y="164" width="38" height="11"/>
    <line x1="384" y1="192" x2="402" y2="192"/><rect x="406" y="186" width="38" height="11"/>
    <line x1="384" y1="214" x2="396" y2="214"/><rect x="406" y="208" width="38" height="11"/>
  </g>

  <!-- dims -->
  <line x1="460" y1="100" x2="460" y2="130" stroke="#f5c542" marker-start="url(#ar)" marker-end="url(#ar)"/>
  <text x="466" y="118" font-size="10" fill="#f5c542">80</text>

  <text x="40" y="146" font-size="10" fill="#f5c542">border 1</text>
  <line x1="86" y1="142" x2="148" y2="131" stroke="#f5c542" stroke-width="0.8" stroke-dasharray="3,2"/>

  <text x="40" y="176" font-size="10" fill="#f5c542">progress 8</text>
  <text x="40" y="188" font-size="10" fill="#f5c542">gap 4</text>
  <line x1="94" y1="176" x2="236" y2="137" stroke="#f5c542" stroke-width="0.8" stroke-dasharray="3,2"/>

  <text x="40" y="216" font-size="10" fill="#f5c542">tabs 40</text>
  <text x="40" y="228" font-size="10" fill="#f5c542">margin 8</text>
  <line x1="80" y1="214" x2="152" y2="145" stroke="#f5c542" stroke-width="0.8" stroke-dasharray="3,2"/>

  <text x="40" y="262" font-size="10" fill="#f5c542">splitter 12</text>
  <line x1="92" y1="259" x2="227" y2="259" stroke="#f5c542" stroke-width="0.8" stroke-dasharray="3,2"/>

  <line x1="150" y1="412" x2="228" y2="412" stroke="#f5c542" marker-start="url(#ar)" marker-end="url(#ar)"/>
  <text x="152" y="426" font-size="10" fill="#f5c542">max 440</text>
  <line x1="378" y1="412" x2="450" y2="412" stroke="#f5c542" marker-start="url(#ar)" marker-end="url(#ar)"/>
  <text x="450" y="426" font-size="10" fill="#f5c542" text-anchor="end">500&#8211;800</text>

  <text x="150" y="446" font-size="9" fill="#8a8a8a">panel min 840 &#215; 800</text>

  <!-- ============ 2 SECTION TABS ============ -->
  <rect x="508" y="52" width="468" height="128" rx="6" fill="#242424" stroke="#3a3a3a"/>
  <text x="524" y="74" font-size="12" font-weight="bold" fill="#e6e6e6">SECTION TABS</text>

  <rect x="560" y="88" width="332" height="56" fill="none" stroke="#5a5a5a" stroke-dasharray="4,3"/>
  <rect x="568" y="96" width="316" height="40" rx="8" fill="none" stroke="#8a8a8a"/>
  <rect x="671" y="96" width="4" height="40" fill="#5a5a5a"/>
  <rect x="777" y="96" width="4" height="40" fill="#5a5a5a"/>
  <text x="620" y="121" font-size="12" fill="#bdbdbd" text-anchor="middle">Mat</text>
  <text x="726" y="121" font-size="12" fill="#bdbdbd" text-anchor="middle">Tex</text>
  <text x="832" y="121" font-size="12" fill="#bdbdbd" text-anchor="middle">COP</text>

  <line x1="902" y1="96" x2="902" y2="136" stroke="#f5c542" marker-start="url(#ar)" marker-end="url(#ar)"/>
  <text x="908" y="119" font-size="10" fill="#f5c542">40</text>
  <line x1="548" y1="88" x2="548" y2="96" stroke="#f5c542" marker-start="url(#ar)" marker-end="url(#ar)"/>
  <text x="524" y="96" font-size="10" fill="#f5c542">8</text>
  <text x="673" y="158" font-size="10" fill="#f5c542" text-anchor="middle">divider 4</text>
  <line x1="673" y1="148" x2="673" y2="138" stroke="#f5c542" stroke-width="0.8" stroke-dasharray="3,2"/>
  <text x="568" y="158" font-size="10" fill="#f5c542">r 8</text>
  <line x1="574" y1="148" x2="570" y2="134" stroke="#f5c542" stroke-width="0.8" stroke-dasharray="3,2"/>

  <!-- ============ 3 FILTER BOX ============ -->
  <rect x="508" y="192" width="468" height="128" rx="6" fill="#242424" stroke="#3a3a3a"/>
  <text x="524" y="214" font-size="12" font-weight="bold" fill="#e6e6e6">FILTER BOX</text>

  <rect x="560" y="228" width="260" height="40" fill="none" stroke="#8a8a8a"/>
  <rect x="584" y="232" width="32" height="32" fill="none" stroke="#5a5a5a"/>
  <path d="M589,238 h22 l-8,9 v9 l-6,3.6 v-12.6 z" fill="none" stroke="#8a8a8a"/>
  <line x1="616" y1="228" x2="616" y2="268" stroke="#f5c542" stroke-width="0.6" stroke-dasharray="2,2"/>
  <line x1="630" y1="240" x2="740" y2="240" stroke="#5a5a5a"/>
  <line x1="630" y1="250" x2="700" y2="250" stroke="#5a5a5a"/>

  <line x1="832" y1="228" x2="832" y2="268" stroke="#f5c542" marker-start="url(#ar)" marker-end="url(#ar)"/>
  <text x="838" y="251" font-size="10" fill="#f5c542">40 fill</text>
  <text x="838" y="263" font-size="9" fill="#f5c542">border 1</text>

  <line x1="560" y1="282" x2="584" y2="282" stroke="#f5c542" marker-start="url(#ar)" marker-end="url(#ar)"/>
  <text x="572" y="295" font-size="10" fill="#f5c542" text-anchor="middle">24</text>
  <line x1="584" y1="282" x2="616" y2="282" stroke="#f5c542" marker-start="url(#ar)" marker-end="url(#ar)"/>
  <text x="600" y="295" font-size="10" fill="#f5c542" text-anchor="middle">32</text>
  <line x1="560" y1="302" x2="616" y2="302" stroke="#f5c542" marker-start="url(#ar)" marker-end="url(#ar)"/>
  <text x="624" y="306" font-size="10" fill="#f5c542">56 text start</text>
  <text x="820" y="295" font-size="10" fill="#f5c542" text-anchor="end">max w 1000 &#183; min 160</text>

  <!-- ============ 4 SIZE SLIDER ============ -->
  <rect x="508" y="332" width="468" height="128" rx="6" fill="#242424" stroke="#3a3a3a"/>
  <text x="524" y="354" font-size="12" font-weight="bold" fill="#e6e6e6">SIZE SLIDER</text>

  <line x1="560" y1="392" x2="719" y2="392" stroke="#bdbdbd" stroke-width="6"/>
  <line x1="719" y1="392" x2="900" y2="392" stroke="#5a5a5a" stroke-width="6"/>
  <g fill="#8a8a8a">
    <rect x="632" y="390" width="12" height="4"/><rect x="636" y="386" width="4" height="12"/>
    <rect x="798" y="390" width="12" height="4"/><rect x="802" y="386" width="4" height="12"/>
  </g>
  <circle cx="719" cy="392" r="11" fill="#242424" stroke="#bdbdbd" stroke-width="2"/>
  <g font-size="8" fill="#8a8a8a">
    <text x="560" y="412" text-anchor="middle">32</text>
    <text x="638" y="412" text-anchor="middle">128</text>
    <text x="719" y="416" text-anchor="middle">256</text>
    <text x="804" y="412" text-anchor="middle">384</text>
    <text x="900" y="412" text-anchor="middle">512</text>
  </g>

  <text x="560" y="376" font-size="10" fill="#f5c542">groove 6</text>
  <text x="900" y="376" font-size="10" fill="#f5c542" text-anchor="end">groove 6</text>
  <text x="742" y="376" font-size="10" fill="#f5c542">&#216; 22 &#183; border 2</text>
  <line x1="740" y1="378" x2="727" y2="385" stroke="#f5c542" stroke-width="0.8" stroke-dasharray="3,2"/>
  <text x="560" y="436" font-size="10" fill="#f5c542">tick 6 &#215; 6 &#183; snap &#177;5 values</text>
  <text x="900" y="436" font-size="10" fill="#f5c542" text-anchor="end">handle inset 11 from ends</text>

  <!-- ============ 5 TOOLBAR ROW ============ -->
  <rect x="24" y="472" width="952" height="146" rx="6" fill="#242424" stroke="#3a3a3a"/>
  <text x="40" y="494" font-size="12" font-weight="bold" fill="#e6e6e6">TOOLBAR ROW</text>

  <rect x="64" y="506" width="896" height="80" fill="none" stroke="#8a8a8a"/>
  <line x1="64" y1="586" x2="960" y2="586" stroke="#5a5a5a" stroke-width="2"/>

  <rect x="64" y="506" width="96" height="80" fill="none" stroke="#666" stroke-dasharray="3,2"/>
  <text x="112" y="551" font-size="11" fill="#bdbdbd" text-anchor="middle">Library</text>
  <rect x="160" y="506" width="76" height="80" fill="none" stroke="#666" stroke-dasharray="3,2"/>
  <text x="198" y="551" font-size="11" fill="#bdbdbd" text-anchor="middle">View</text>
  <rect x="236" y="506" width="110" height="80" fill="none" stroke="#666" stroke-dasharray="3,2"/>
  <text x="291" y="551" font-size="11" fill="#bdbdbd" text-anchor="middle">Renderer</text>

  <text x="376" y="549" font-size="9" fill="#666">&#8596;</text>
  <text x="404" y="550" font-size="11" fill="#bdbdbd">Filters</text>

  <rect x="490" y="526" width="190" height="40" fill="none" stroke="#8a8a8a"/>
  <rect x="502" y="530" width="32" height="32" fill="none" stroke="#5a5a5a"/>
  <line x1="546" y1="542" x2="640" y2="542" stroke="#5a5a5a"/>

  <rect x="700" y="522" width="48" height="48" fill="none" stroke="#666" stroke-dasharray="3,2"/>
  <text x="724" y="552" font-size="13" fill="#bdbdbd" text-anchor="middle">&#9733;</text>
  <rect x="760" y="522" width="48" height="48" fill="none" stroke="#666" stroke-dasharray="3,2"/>
  <g fill="#8a8a8a"><rect x="772" y="536" width="24" height="3"/><rect x="772" y="543" width="24" height="3"/><rect x="772" y="550" width="24" height="3"/></g>

  <text x="826" y="549" font-size="9" fill="#666">&#8596;</text>

  <line x1="846" y1="546" x2="884" y2="546" stroke="#bdbdbd" stroke-width="4"/>
  <line x1="884" y1="546" x2="924" y2="546" stroke="#5a5a5a" stroke-width="4"/>
  <circle cx="884" cy="546" r="7" fill="#242424" stroke="#bdbdbd" stroke-width="1.5"/>

  <!-- gap chain -->
  <g stroke="#f5c542" stroke-width="0.8">
    <line x1="64" y1="592" x2="64" y2="598"/><line x1="88" y1="592" x2="88" y2="598"/>
    <line x1="136" y1="592" x2="136" y2="598"/><line x1="160" y1="592" x2="160" y2="598"/>
    <line x1="440" y1="592" x2="440" y2="598"/><line x1="490" y1="592" x2="490" y2="598"/>
    <line x1="680" y1="592" x2="680" y2="598"/><line x1="700" y1="592" x2="700" y2="598"/>
    <line x1="748" y1="592" x2="748" y2="598"/><line x1="760" y1="592" x2="760" y2="598"/>
    <line x1="924" y1="592" x2="924" y2="598"/><line x1="948" y1="592" x2="948" y2="598"/><line x1="960" y1="592" x2="960" y2="598"/>
  </g>
  <g font-size="10" fill="#f5c542">
    <text x="76" y="609" text-anchor="middle">24</text>
    <text x="148" y="609" text-anchor="middle">24</text>
    <text x="465" y="609" text-anchor="middle">50</text>
    <text x="690" y="609" text-anchor="middle">20</text>
    <text x="754" y="609" text-anchor="middle">12</text>
    <text x="936" y="609" text-anchor="middle">24</text>
    <text x="958" y="609" text-anchor="middle">12</text>
  </g>

  <line x1="52" y1="506" x2="52" y2="586" stroke="#f5c542" marker-start="url(#ar)" marker-end="url(#ar)"/>
  <text x="46" y="550" font-size="10" fill="#f5c542" text-anchor="end">80</text>
  <text x="700" y="500" font-size="9" fill="#f5c542">buttons 48 &#183; icons 36</text>
  <text x="490" y="500" font-size="9" fill="#f5c542">box 40 tall</text>
  <text x="850" y="609" font-size="9" fill="#8a8a8a" text-anchor="end">bottom border 1</text>

  <!-- ============ 6 TILES ============ -->
  <rect x="24" y="630" width="952" height="150" rx="6" fill="#242424" stroke="#3a3a3a"/>
  <text x="40" y="652" font-size="12" font-weight="bold" fill="#e6e6e6">TILES</text>

  <!-- grid tile -->
  <rect x="90" y="664" width="96" height="104" fill="none" stroke="#8a8a8a"/>
  <rect x="97" y="671" width="82" height="72" fill="none" stroke="#5a5a5a"/>
  <line x1="97" y1="750" x2="166" y2="750" stroke="#5a5a5a"/>
  <line x1="97" y1="759" x2="145" y2="759" stroke="#5a5a5a"/>
  <line x1="90" y1="656" x2="186" y2="656" stroke="#f5c542" marker-start="url(#ar)" marker-end="url(#ar)"/>
  <text x="138" y="650" font-size="10" fill="#f5c542" text-anchor="middle">T + 20</text>
  <line x1="194" y1="664" x2="194" y2="768" stroke="#f5c542" marker-start="url(#ar)" marker-end="url(#ar)"/>
  <text x="200" y="718" font-size="10" fill="#f5c542">T + 112</text>
  <text x="46" y="676" font-size="10" fill="#f5c542">pad 8</text>
  <line x1="74" y1="672" x2="96" y2="670" stroke="#f5c542" stroke-width="0.8" stroke-dasharray="3,2"/>
  <text x="90" y="774" font-size="9" fill="#8a8a8a">GRID</text>

  <!-- list row -->
  <rect x="330" y="680" width="340" height="56" fill="none" stroke="#8a8a8a"/>
  <rect x="338" y="688" width="40" height="40" fill="none" stroke="#5a5a5a"/>
  <line x1="394" y1="700" x2="540" y2="700" stroke="#5a5a5a"/>
  <line x1="394" y1="714" x2="480" y2="714" stroke="#5a5a5a"/>
  <line x1="680" y1="680" x2="680" y2="736" stroke="#f5c542" marker-start="url(#ar)" marker-end="url(#ar)"/>
  <text x="686" y="711" font-size="10" fill="#f5c542">T + 28 (min 104)</text>
  <line x1="378" y1="744" x2="394" y2="744" stroke="#f5c542" marker-start="url(#ar)" marker-end="url(#ar)"/>
  <text x="386" y="757" font-size="10" fill="#f5c542" text-anchor="middle">gap 16</text>
  <text x="338" y="674" font-size="10" fill="#f5c542">icon h &#8722; 16</text>
  <line x1="352" y1="678" x2="356" y2="690" stroke="#f5c542" stroke-width="0.8" stroke-dasharray="3,2"/>
  <text x="330" y="774" font-size="9" fill="#8a8a8a">LIST (row w = pane width)</text>

  <text x="810" y="700" font-size="10" fill="#bdbdbd">T = thumbnail size</text>
  <text x="810" y="714" font-size="10" fill="#8a8a8a">= 2 &#215; slider value</text>
  <text x="810" y="728" font-size="10" fill="#8a8a8a">(default 256 &#8594; T 512)</text>
</svg>
