<svg xmlns="http://www.w3.org/2000/svg" viewBox="0 0 32 32">
  <!-- Grid view-mode state: four rounded squares in the accent purple,
       per the "ui_wireframe 2 only menu" design file. -->
  <g transform="translate(-1295,-12)" fill="#5d7abd" fill-rule="evenodd">
    <path d="M 1297 39 C 1297 40.65686 1298.34314 42 1300 42 L 1306 42 C 1307.65686 42 1309 40.65686 1309 39 L 1309 33 C 1309 31.34314 1307.65686 30 1306 30 L 1300 30 C 1298.34314 30 1297 31.34314 1297 33 Z"/>
    <path d="M 1313 39 C 1313 40.65686 1314.34314 42 1316 42 L 1322 42 C 1323.65686 42 1325 40.65686 1325 39 L 1325 33 C 1325 31.34314 1323.65686 30 1322 30 L 1316 30 C 1314.34314 30 1313 31.34314 1313 33 Z"/>
    <path d="M 1313 23 C 1313 24.65686 1314.34314 26 1316 26 L 1322 26 C 1323.65686 26 1325 24.65686 1325 23 L 1325 17 C 1325 15.34314 1323.65686 14 1322 14 L 1316 14 C 1314.34314 14 1313 15.34314 1313 17 Z"/>
    <path d="M 1297 23 C 1297 24.65686 1298.34314 26 1300 26 L 1306 26 C 1307.65686 26 1309 24.65686 1309 23 L 1309 17 C 1309 15.34314 1307.65686 14 1306 14 L 1300 14 C 1298.34314 14 1297 15.34314 1297 17 Z"/>
  </g>
</svg>
