<svg xmlns="http://www.w3.org/2000/svg" viewBox="0 0 36 36">
  <!-- Library menu icon (gear + corner menu triangle), from the
       "ui_wireframe 2 only menu" design file. Colors are load-time tint targets:
       #5d7abd = icon body, #7f807f = menu triangle, #2d2d2d = punch-out.
       The gear BODY is centered in the viewBox (the design centers the
       clicked-state chip on the body); the triangle hangs into the
       bottom-right corner, deliberately off-balance. -->
  <g transform="translate(-1442.5,-9.5)">
    <path fill="#5d7abd" d="M 1470.254517 31.454529 C 1469.895508 32.268005 1470.067749 33.218018 1470.689575 33.853638 L 1470.768677 33.932739 C 1471.263672 34.427246 1471.54187 35.098267 1471.54187 35.797974 C 1471.54187 36.497681 1471.263672 37.168701 1470.768677 37.663208 C 1470.27417 38.158203 1469.603149 38.436401 1468.903442 38.436401 C 1468.203735 38.436401 1467.532715 38.158203 1467.038208 37.663208 L 1466.959106 37.584106 C 1466.323486 36.962341 1465.373413 36.7901 1464.560059 37.149109 C 1463.763184 37.490601 1463.245239 38.272644 1463.241821 39.139526 L 1463.241821 39.363647 C 1463.241821 40.819641 1462.061523 42 1460.605469 42 C 1459.149414 42 1457.969116 40.819641 1457.969116 39.363647 L 1457.969116 39.244995 C 1457.948242 38.352173 1457.383667 37.562805 1456.54541 37.254517 C 1455.732056 36.895569 1454.781982 37.06781 1454.146362 37.689575 L 1454.067261 37.768616 C 1453.572754 38.263672 1452.901733 38.54187 1452.202026 38.54187 C 1451.502319 38.54187 1450.831299 38.263672 1450.336792 37.768616 C 1449.841797 37.274109 1449.563599 36.603149 1449.563599 35.903381 C 1449.563599 35.203674 1449.841797 34.532654 1450.336792 34.038208 L 1450.415894 33.959106 C 1451.037598 33.323486 1451.209961 32.373413 1450.850952 31.559998 C 1450.509399 30.763184 1449.727295 30.2453 1448.860474 30.241821 L 1448.636353 30.241821 C 1447.180298 30.241821 1446 29.061462 1446 27.605469 C 1446 26.149414 1447.180298 24.969116 1448.636353 24.969116 L 1448.755005 24.969116 C 1449.647827 24.948181 1450.437134 24.383667 1450.745483 23.545471 C 1451.104492 22.731995 1450.932251 21.781982 1450.310425 21.146362 L 1450.231323 21.067261 C 1449.736328 20.572754 1449.45813 19.901733 1449.45813 19.202026 C 1449.45813 18.502319 1449.736328 17.831299 1450.231323 17.336792 C 1450.72583 16.841797 1451.396851 16.563599 1452.096558 16.563599 C 1452.796265 16.563599 1453.467285 16.841797 1453.961792 17.336792 L 1454.040894 17.415894 C 1454.676514 18.037659 1455.626587 18.2099 1456.439941 17.850891 L 1456.54541 17.850891 C 1457.342285 17.509399 1457.860229 16.727356 1457.863647 15.860474 L 1457.863647 15.636353 C 1457.863647 14.180359 1459.043945 13 1460.5 13 C 1461.956055 13 1463.136353 14.180359 1463.136353 15.636353 L 1463.136353 15.755005 C 1463.139771 16.621887 1463.657715 17.403931 1464.45459 17.745483 C 1465.267944 18.104431 1466.218018 17.93219 1466.853638 17.310425 L 1466.932739 17.231384 C 1467.427246 16.736328 1468.098267 16.45813 1468.797974 16.45813 C 1469.497681 16.45813 1470.168701 16.736328 1470.663208 17.231384 C 1471.158203 17.725891 1471.436401 18.396851 1471.436401 19.096619 C 1471.436401 19.796326 1471.158203 20.467346 1470.663208 20.961792 L 1470.584106 21.040894 C 1469.962402 21.676514 1469.790039 22.626587 1470.149048 23.440002 L 1470.149048 23.545471 C 1470.490601 24.342285 1471.272705 24.860168 1472.139526 24.863647 L 1472.363647 24.863647 C 1473.819702 24.863647 1475 26.044006 1475 27.5 C 1475 28.955994 1473.819702 30.136353 1472.363647 30.136353 L 1472.244995 30.136353 C 1471.378052 30.139832 1470.596069 30.657715 1470.254517 31.454529 Z"/>
    <path fill="#2d2d2d" d="M 1466 27.5 C 1466 30.537537 1463.537598 33 1460.5 33 C 1457.462402 33 1455 30.537537 1455 27.5 C 1455 24.462463 1457.462402 22 1460.5 22 C 1463.537598 22 1466 24.462463 1466 27.5 Z"/>
    <path fill="#7f807f" fill-rule="evenodd" d="M 1470 45 L 1478 45 L 1478 37 Z"/>
  </g>
</svg>
